<?xml version="1.0" encoding="iso-8859-1"?>
<!DOCTYPE svg PUBLIC "-//W3C//DTD SVG 1.1//EN" "http://www.w3.org/Graphics/SVG/1.1/DTD/svg11.dtd">
<svg xmlns="http://www.w3.org/2000/svg" xmlns:xlink="http://www.w3.org/1999/xlink" version="1.1" viewBox="0 0 512.001 512.001" enable-background="new 0 0 512.001 512.001" width="512px" height="512px">
  <path d="m508.573,127.214c-3.292-15.556-22.484-21.302-33.728-10.059l-68.217,68.217c-12.497,12.498-32.759,12.498-45.255,0l-34.745-34.744c-12.497-12.496-12.497-32.758 0-45.256l68.217-68.217c11.243-11.244 5.497-30.436-10.059-33.728-20.908-4.424-43.321-4.749-66.482,0.109-63.989,13.422-114.405,66.437-124.346,131.058-1.323,8.608-1.961,17.406-1.958,25.406v66.75l-172.687,172.688c-12.453,12.453-19.313,29.008-19.313,46.618 0,17.602 6.859,34.156 19.313,46.609 0.172,0.18 0.351,0.352 0.531,0.523 12.299,12.051 28.493,18.714 45.724,18.812 17.919,0.102 35.055-7.372 47.726-20.043l171.956-171.957h66.75c8,0.004 16.799-0.634 25.405-1.957 64.622-9.941 117.639-60.357 131.06-124.348 4.858-23.16 4.533-45.573 0.108-66.481zm-428.573,336.787c-17.673,0-32-14.328-32-32 0-17.674 14.327-32 32-32 17.674,0 32,14.326 32,32 0,17.672-14.326,32-32,32z" fill="#F57D1F"/>
</svg>
